<svg width="16" height="16" viewBox="0 0 16 16" fill="none" xmlns="http://www.w3.org/2000/svg">
<path d="M4.6665 7.33337L7.3865 14.2334C7.43773 14.3536 7.52319 14.4562 7.63224 14.5283C7.74129 14.6003 7.86912 14.6388 7.99984 14.6388C8.13055 14.6388 8.25839 14.6003 8.36744 14.5283C8.47649 14.4562 8.56194 14.3536 8.61317 14.2334L11.3332 7.33337" stroke="#7E6D67" stroke-width="1.33333" stroke-linecap="round" stroke-linejoin="round"/>
<path d="M11.3332 4.66671C11.3332 3.78265 10.982 2.93481 10.3569 2.30968C9.73174 1.68456 8.88389 1.33337 7.99984 1.33337C7.11578 1.33337 6.26794 1.68456 5.64281 2.30968C5.01769 2.93481 4.6665 3.78265 4.6665 4.66671" stroke="#7E6D67" stroke-width="1.33333" stroke-linecap="round" stroke-linejoin="round"/>
<path d="M11.3335 4.66663C11.6871 4.66663 12.0263 4.8071 12.2763 5.05715C12.5264 5.3072 12.6668 5.64634 12.6668 5.99996C12.6668 6.35358 12.5264 6.69272 12.2763 6.94277C12.0263 7.19282 11.6871 7.33329 11.3335 7.33329H4.66683C4.31321 7.33329 3.97407 7.19282 3.72402 6.94277C3.47397 6.69272 3.3335 6.35358 3.3335 5.99996C3.3335 5.64634 3.47397 5.3072 3.72402 5.05715C3.97407 4.8071 4.31321 4.66663 4.66683 4.66663" stroke="#7E6D67" stroke-width="1.33333" stroke-linecap="round" stroke-linejoin="round"/>
</svg>
