<svg width="16" height="16" viewBox="0 0 16 16" fill="none" xmlns="http://www.w3.org/2000/svg">
<path d="M1.58008 7.48203L7.16141 2.96403C7.39875 2.772 7.69479 2.66724 8.00008 2.66724C8.30537 2.66724 8.60141 2.772 8.83875 2.96403L14.4194 7.48203" stroke="#7E6D67" stroke-width="1.33333" stroke-linecap="round" stroke-linejoin="round"/>
<path d="M14 10C14.1768 10 14.3464 10.0702 14.4714 10.1953C14.5964 10.3203 14.6667 10.4899 14.6667 10.6667V12C14.6667 12.1768 14.5964 12.3464 14.4714 12.4714C14.3464 12.5964 14.1768 12.6667 14 12.6667H10.5" stroke="#7E6D67" stroke-width="1.33333" stroke-linecap="round" stroke-linejoin="round"/>
<path d="M2.00016 10C1.82335 10 1.65378 10.0702 1.52876 10.1953C1.40373 10.3203 1.3335 10.4899 1.3335 10.6667V12C1.3335 12.1768 1.40373 12.3464 1.52876 12.4714C1.65378 12.5964 1.82335 12.6667 2.00016 12.6667H8.00016" stroke="#7E6D67" stroke-width="1.33333" stroke-linecap="round" stroke-linejoin="round"/>
<path d="M4.44678 10L8.53344 13.0667C8.67352 13.1717 8.83292 13.2482 9.00254 13.2916C9.17215 13.3351 9.34867 13.3447 9.52201 13.3199C9.69534 13.2952 9.8621 13.2365 10.0128 13.1473C10.1634 13.0581 10.2951 12.9401 10.4001 12.8L12.5001 10" stroke="#7E6D67" stroke-width="1.33333" stroke-linecap="round" stroke-linejoin="round"/>
<path d="M14.0002 7.33337H2.00016C1.63197 7.33337 1.3335 7.63185 1.3335 8.00004V9.33337C1.3335 9.70156 1.63197 10 2.00016 10H14.0002C14.3684 10 14.6668 9.70156 14.6668 9.33337V8.00004C14.6668 7.63185 14.3684 7.33337 14.0002 7.33337Z" stroke="#7E6D67" stroke-width="1.33333" stroke-linecap="round" stroke-linejoin="round"/>
</svg>
